<?xml version="1.0" encoding="utf-8"?>
<!-- Generator: Adobe Illustrator 19.2.0, SVG Export Plug-In . SVG Version: 6.00 Build 0)  -->
<svg version="1.1" id="Layer_1" xmlns="http://www.w3.org/2000/svg" xmlns:xlink="http://www.w3.org/1999/xlink" x="0px" y="0px"
	 viewBox="0 0 2160 2160" style="enable-background:new 0 0 2160 2160;" xml:space="preserve">
<style type="text/css">
	.st0{fill:none;}
	.st1{fill:#2AA9E0;}
</style>
<rect class="st0" width="2160" height="2160"/>
<path class="st1" d="M1721.5,438.5C1550,266.9,1322.2,171.8,1080,171.8c-500.3,0-908.2,407.9-908.2,908.2s407.9,908.2,908.2,908.2
	s908.2-407.9,908.2-908.2C1988.2,837.8,1893.1,610,1721.5,438.5z M1080,1669.6c-273.9,0-497.3-223.4-497.3-497.3
	c0-232.1,155.7-387.7,292.6-524.7c90.8-90.8,178.8-178.8,204.7-276.7c26,98,112.4,185.9,204.7,276.7
	c137,137,292.6,292.6,292.6,524.7C1577.3,1446.1,1353.9,1669.6,1080,1669.6z"/>
</svg>
